<?xml version="1.0" encoding="UTF-8"?>
<!-- Generator: visioncortex VTracer 0.6.12 -->
<svg version="1.1" xmlns="http://www.w3.org/2000/svg" width="1002" height="346">
<path d="M0 0 C0.3299999999999841 0.16499999999999915 0.3299999999999841 0.16499999999999915 2 1 C2.329999999999984 41.59 2.6599999999999966 82.18 3 124 C8.610000000000014 120.04000000000002 14.219999999999999 116.07999999999998 20 112 C23.996458504152542 113.59858340166102 26.842033212465594 115.06380356369084 30.3515625 117.4140625 C31.36863281250001 118.09339843750001 32.38570312499999 118.772734375 33.43359375 119.47265625 C34.4867578125 120.1829296875 35.539921875000005 120.89320312500001 36.625 121.625 C37.13998046875 121.96853515625 37.13998046875 121.96853515625 39.74609375 123.70703125 C44.6677491325313 127.00670712281658 49.53291417626997 130.35924992375942 54.30859375 133.8671875 C61.22112185699879 138.93712127178188 68.33140138962219 143.70769445399367 75.4375 148.5 C76.77940981116262 149.40738508717521 78.12120715467577 150.31493652278175 79.462890625 151.22265625 C80.12173248291015 151.66778564453125 80.78057434082032 152.1129150390625 81.45938110351563 152.571533203125 C82.76481809530645 153.45410716662786 84.06933940064445 154.33803721704902 85.37289428710938 155.223388671875 C88.43485554555247 157.29731556420052 91.50975341893579 159.33519181380308 94.64501953125 161.296875 C95.7431396484375 161.99296875 96.84125976562501 162.6890625 97.97265625 163.40625 C98.45931762695312 163.706923828125 98.45931762695312 163.706923828125 100.922119140625 165.228515625 C101.60781982421875 165.81310546875 102.2935205078125 166.3976953125 103 167 C103 168.32 103 169.64 103 171 C101.12109374999994 172.78906250000006 101.12109374999994 172.78906250000006 98.4375 174.625 C97.4281640625 175.323671875 96.418828125 176.02234375 95.37890625 176.7421875 C94.2540421764559 177.49693926757317 93.1276962833077 178.24948650430588 92 179 C91.4326513671875 179.379306640625 90.865302734375 179.75861328125 90.28076171875 180.1494140625 C87.84653173401628 181.7749455310022 85.40973505330606 183.3964765311391 82.968017578125 185.0107421875 C75.18944460882341 190.16597999383967 67.60412301060805 195.5924316135926 60 201 C51.21530890077295 207.23949830165824 42.40371429141308 213.43117344687906 33.5 219.5 C27.30095908161161 223.7257574632177 21.12984192098375 227.98688749019533 15 232.3125 C14.300441894531247 232.80451904296876 13.600883789062493 233.29653808593753 12.880126953125 233.803466796875 C9.759152482256383 236.00775500046262 6.666453831631145 238.2340335307788 3.63671875 240.5625 C3.1500976562500114 240.93375000000003 3.1500976562500114 240.93375000000003 0.6875 242.8125 C-0.1336328124999966 243.4583203125 -0.9547656249999932 244.104140625 -1.80078125 244.76953125 C-4 246 -4 246 -5.847412109375 245.763916015625 C-8.43535806758132 244.84549899132787 -10.381849157837735 243.5718257041434 -12.640625 242.0078125 C-13.538698730468752 241.39043212890624 -14.436772460937505 240.77305175781248 -15.362060546875 240.136962890625 C-15.838570556640633 239.80498901367184 -15.838570556640633 239.80498901367184 -18.25 238.125 C-19.23202392578125 237.44751708984376 -20.214047851562498 236.7700341796875 -21.225830078125 236.072021484375 C-23.217417173601987 234.69762357921934 -25.20742024315166 233.32092737940064 -27.19580078125 231.94189453125 C-29.664842135130016 230.2320952165398 -32.1402283774119 228.53241731131152 -34.62109375 226.83984375 C-42.17526883497655 221.68372120078124 -49.64503039091552 216.4383143931578 -57 211 C-52.697568497266545 206.2673253469932 -47.682593420141984 201.97527655493613 -42 199 C-38.278344955668686 199.4259906797309 -35.663043663460044 201.36200195467592 -32.60546875 203.421875 C-31.567128906250005 204.11796875 -30.528789062499996 204.8140625 -29.458984375 205.53125 C-28.37939453125 206.2634375 -27.2998046875 206.995625 -26.1875 207.75 C-25.119511718750005 208.46671875 -24.051523437499995 209.1834375 -22.951171875 209.921875 C-18.54085440458047 212.88936133754882 -14.156859261930606 215.8620546392941 -9.89453125 219.0390625 C-7 221 -7 221 -4.5 220.625 C-1.7731969829263505 218.85257803890212 0.8688000016195474 217.00309356860228 3.44921875 215.0234375 C5 214 5 214 7 214 C2.2625347130656337 208.6260030335436 -3.6566164102006837 205.07023669275193 -9.625 201.1875 C-18.212126880806665 195.5720133977203 -26.789684759733007 189.93167224370347 -34.83203125 183.545166015625 C-36.37500000000003 182.37499999999997 -36.37500000000003 182.37499999999997 -39 181 C-43.563044593412314 182.26706686425157 -47.23821845695605 185.05431282210247 -51.0625 187.75 C-51.742802734375005 188.22445556640625 -52.423105468749995 188.6989111328125 -53.1240234375 189.187744140625 C-54.610931705463074 190.22554474084194 -56.09638308400639 191.26543502169392 -57.58056640625 192.30712890625 C-60.16482390948468 194.1153268404003 -62.759363272648315 195.90807833004357 -65.35546875 197.69921875 C-67.1538535185564 198.94501274622834 -68.95203359545471 200.19110228460548 -70.75 201.4375 C-71.60730712890626 202.028212890625 -72.4646142578125 202.61892578125 -73.347900390625 203.2275390625 C-74.15606201171875 203.790537109375 -74.96422363281249 204.35353515625 -75.796875 204.93359375 C-76.51198242187499 205.42915771484374 -77.22708984375001 205.9247216796875 -77.9638671875 206.435302734375 C-80.17092576863982 208.13135050973773 -82.07338182033018 209.99459515783946 -84 212 C-73.26225163520667 220.0404670769864 -62.10070365419158 227.47509230499304 -51 235 C-49.838679212789344 235.78756047704212 -48.67738429723438 236.57515910505384 -47.51611328125 237.36279296875 C-46.92436813354492 237.76412948608402 -46.33262298583985 238.16546600341798 -45.72294616699219 238.57896423339844 C-44.51259742540559 239.39995320960907 -43.30232134804638 240.22104932158845 -42.09211730957031 241.04225158691406 C-39.069118125041825 243.09337453835394 -36.044883033275056 245.14261917524095 -33.017822265625 247.187744140625 C-27.912388427875783 250.64027665931917 -22.819703831707486 254.10392342315464 -17.8046875 257.6875 C-17.061381835937496 258.215048828125 -16.318076171875006 258.74259765625 -15.55224609375 259.2861328125 C-14.232225822686999 260.22770330325585 -12.919357488614622 261.17942568735265 -11.61572265625 262.1435546875 C-7.5110756616310255 265.062883741085 -7.5110756616310255 265.062883741085 -5.0673828125 264.76220703125 C-2.768268550806596 263.91456476329927 -1.0257038094890731 262.8467867872287 0.984375 261.4453125 C1.7469360351562386 260.9182470703125 2.5094970703125057 260.391181640625 3.295166015625 259.84814453125 C4.105261230468756 259.2795068359375 4.915356445312511 258.710869140625 5.75 258.125 C6.170194091796873 257.8335913085938 6.170194091796873 257.8335913085938 8.296630859375 256.35888671875 C10.027905901734698 255.15814001673448 11.757636974093487 253.9551642029241 13.48583984375 252.75 C16.495043711116978 250.65542111853892 19.51764891453817 248.58094720730355 22.54248046875 246.509033203125 C30.632545417909625 240.96605783488883 38.6874358789853 235.3766348736484 46.66015625 229.665771484375 C55.63091262071882 223.2403906043798 64.6529242064178 216.8902584235917 73.71630859375 210.59619140625 C75.74599360014915 209.17753836243583 77.76008742001673 207.7400538803651 79.76953125 206.29296875 C80.81496093749999 205.5569140625 81.86039062500001 204.820859375 82.9375 204.0625 C83.37513671875001 203.74861328125002 83.37513671875001 203.74861328125002 85.58984375 202.16015625 C88 201 88 201 90.421875 201.03515625 C93.79448000938024 202.2973281247226 96.48263187274543 204.2018813409175 99.3125 206.375 C99.86228515625001 206.774609375 100.41207031249999 207.17421875 100.978515625 207.5859375 C102.55078125000003 208.7734375 102.55078125000003 208.7734375 105 211 C105 211.99 105 212.98 105 214 C103.57324218749997 215.31176757812503 103.57324218749997 215.31176757812503 101.546875 216.64453125 C100.793095703125 217.14895751953125 100.03931640625001 217.6533837890625 99.2626953125 218.173095703125 C98.433505859375 218.71409912109374 97.60431640625 219.2551025390625 96.75 219.8125 C94.9888196192546 220.98844033877845 93.22842678727159 222.16556087332026 91.46875 223.34375 C90.55867187499999 223.949609375 89.64859375 224.55546875 88.7109375 225.1796875 C84.51488488920816 227.99720985825502 80.38236799652677 230.90272116736924 76.25 233.8125 C74.58356235875732 234.98209721584453 72.91689108581585 236.15136161673354 71.25 237.3203125 C70.4005078125 237.91618164062504 69.55101562499999 238.51205078124997 68.67578125 239.1259765625 C56.80012944397757 247.44326700620695 44.89479723101198 255.71831198000325 32.93359375 263.912109375 C28.394529912662534 267.0268784897161 23.882409754214024 270.17870065733416 19.3779296875 273.34326171875 C16.81158912892576 275.144277751774 14.240223295701952 276.937913194272 11.66796875 278.73046875 C8.836353220749515 280.7049899040601 6.025531341810677 282.7017081837357 3.23828125 284.73828125 C2.1902734374999966 285.4846484375 1.1422656249999932 286.231015625 0.0625 287 C-0.8127734374999989 287.639375 -1.6880468749999977 288.27875 -2.58984375 288.9375 C-5.000000000000057 290 -5.000000000000057 290 -7.38671875 289.48828125 C-10.711012254155321 287.5950737386649 -13.791123809549958 285.441528965229 -16.875 283.1875 C-26.01123938897203 276.6185803617454 -35.326815198223514 270.325288482811 -44.66326904296875 264.0462341308594 C-52.292568958017455 258.91511367456934 -59.8683374356724 253.72832723821767 -67.32353210449219 248.34628295898438 C-70.64864465950934 245.94770054821151 -74.01267509989455 243.62879887520847 -77.4375 241.375 C-84.56353601899602 236.67546076809145 -91.54463069787224 231.7690764672211 -98.537109375 226.873779296875 C-104.66522783611066 222.59186242283857 -110.8334942493013 218.42782789908298 -117.18359375 214.48046875 C-117.7830078125 213.9919140625 -118.382421875 213.503359375 -119 213 C-119 212.01 -119 211.02 -119 210 C-117.20263671875003 208.44116210937503 -117.20263671875003 208.44116210937503 -114.6796875 206.77734375 C-113.757685546875 206.16060791015624 -112.83568359374999 205.5438720703125 -111.8857421875 204.908447265625 C-110.892197265625 204.25803466796876 -109.89865234375 203.6076220703125 -108.875 202.9375 C-106.85584400460786 201.5925362170093 -104.8376153306187 200.24617924115907 -102.8203125 198.8984375 C-101.828056640625 198.238115234375 -100.83580078125 197.57779296875 -99.8134765625 196.8974609375 C-95.47583093596842 193.97207202658336 -91.24224405663236 190.9087515529375 -87.03857421875 187.794677734375 C-83.21010026630086 185 -83.21010026630086 185 -81 185 C-81.00921792984009 184.41561692237855 -81.01843585968018 183.8312338447571 -81.02793312072754 183.22914218902588 C-81.24919702935141 168.98109217854503 -81.41445750893186 154.73330105231963 -81.51812171936035 140.48389530181885 C-81.5695921737982 133.59271948709556 -81.63970292025624 126.70269340811433 -81.75439453125 119.812255859375 C-81.8650716198902 113.1598062938973 -81.92287923388282 106.50823504036069 -81.94877243041992 99.85482597351074 C-81.96721901056507 97.3193935421624 -82.00324302687622 94.78402484720482 -82.05730056762695 92.24910163879395 C-82.486003598888 71.30893079015627 -82.486003598888 71.30893079015627 -78.84124755859375 66.51095581054688 C-76.32401491309228 64.21746372105666 -73.97455310209645 62.62896815069132 -71 61 C-69.70141596935343 59.907149655048414 -68.42461668693377 58.786974467886935 -67.1875 57.625 C-63.227280382123894 54.17270434113004 -59.21231583432352 50.78543952303379 -55.19775390625 47.396728515625 C-49.95800429174565 42.971901399006285 -44.74930664840065 38.51156703023217 -39.546875 34.04296875 C-37.16616839054872 31.998323211661877 -34.780471910512816 29.959734742217528 -32.390625 27.92578125 C-26.95769099653485 23.296413341664007 -21.568898409743326 18.64330933395445 -16.3125 13.8125 C-11.04958817037084 8.98033244214107 -5.576684275023979 4.465662069361578 0 0 Z M-21.1875 43.75 C-24.43227308627624 46.62842773782569 -27.70763716074765 49.46504455850459 -31.009765625 52.277099609375 C-36.783242861292564 57.194407076742806 -42.464676829859656 62.18133721104556 -48.01171875 67.35546875 C-50.999999999999986 70 -50.999999999999986 70 -53.660308837890625 71.49627685546875 C-57.69408595012166 74.04513846125651 -61.20237375596622 76.36414177428189 -62.619524002075195 81.04729652404785 C-63.57822682018144 87.2543564346019 -63.26060617844982 93.52951092011003 -63.07421875 99.78515625 C-63.053679272480565 101.81249251815518 -63.03803209649085 103.83988372359482 -63.02705383300781 105.86729431152344 C-62.98523193198872 111.18046204223913 -62.877346875325344 116.49027417739507 -62.75531005859375 121.8021240234375 C-62.64238752622987 127.23155321678962 -62.59246064862653 132.66152961278084 -62.537109375 138.091796875 C-62.419454353995704 148.7293317843825 -62.23194387629434 159.3643859206278 -62 170 C-58.795591228855216 168.7540605435664 -56.03746482167537 167.52276208298565 -53.25 165.5 C-52.65703125 165.07718749999998 -52.064062500000006 164.65437500000002 -51.453125 164.21875 C-50 163 -50 163 -49 161 C-48.9302113017295 158.64738655860432 -48.92727752022951 156.29271269042414 -48.953369140625 153.939208984375 C-48.96614704897756 152.4317603012034 -48.97858726829861 150.924308728048 -48.99073791503906 149.41685485839844 C-48.99865419387817 148.61557600021362 -49.006570472717286 147.8142971420288 -49.014726638793945 146.98873710632324 C-49.05683702833568 141.85079386968164 -49.04499836058734 136.7126208563385 -49.04483890533447 131.574538230896 C-49.047831641974 127.06237852821121 -49.06840764030923 122.5516029711471 -49.126708984375 118.039794921875 C-49.18208364575936 113.67312178489436 -49.188274618724904 109.30876682825732 -49.16201591491699 104.94185066223145 C-49.16078596068304 103.28292749771651 -49.17714084231224 101.62388889813008 -49.211931228637695 99.96533012390137 C-49.467982462374934 87.07138936837214 -49.467982462374934 87.07138936837214 -45.942108154296875 82.09622192382813 C-43.40371048938832 79.75855867939939 -40.88914924209061 77.88247106239976 -38 76 C-36.71788080915654 75.09429599741722 -35.43952320561111 74.18324712874752 -34.16468811035156 73.26731872558594 C-33.642514572143554 72.89321113586425 -33.642514572143554 72.89321113586425 -31 71 C-31.005949325561517 71.56740905761718 -31.005949325561517 71.56740905761718 -31.036056518554688 74.4388427734375 C-31.14116115138141 85.14989605523306 -31.188176773370458 95.85985146565147 -31.17878246307373 106.5714340209961 C-31.175807452416933 112.07822814432399 -31.193070552525043 117.5833885221902 -31.257080078125 123.08984375 C-31.31814040211144 128.4073490942805 -31.325391366344377 133.7224908030674 -31.29583168029785 139.0402374267578 C-31.293932718700844 141.0656109110171 -31.31120312386622 143.091098687598 -31.34822654724121 145.1161346435547 C-31.619808794055842 160.98399695825412 -31.619808794055842 160.98399695825412 -27.615982055664063 165.96713256835938 C-24.81907018117971 168.02827280450322 -22.14048867264168 169.53270894910972 -19 171 C-17.547470022973002 171.94675764521673 -16.107365234617134 172.91343593288298 -14.69140625 173.9140625 C-13.316272913550847 174.81948589470252 -11.939947801579137 175.72310157411536 -10.5625 176.625 C-2.821454085493457 181.73427376044182 4.792407192783685 187.00946408379846 12.363037109375 192.36767578125 C14.567363154409747 193.9236969460417 16.780793911911474 195.46530882255124 19 197 C19.931992187499986 197.6483984375 20.863984375 198.296796875 21.82421875 198.96484375 C23.99999999999997 200 23.99999999999997 200 26.015625 199.86328125 C28.41498548847244 198.81946497450312 30.550316343604152 197.60723046450386 32.75 196.1875 C33.549218749999994 195.6860546875 34.34843749999999 195.184609375 35.171875 194.66796875 C35.77515625000001 194.1175390625 36.37843750000002 193.567109375 37 193 C37 191.68 37 190.36 37 189 C34.67770531062453 187.0896761162299 32.45434838107684 185.49003760192915 29.9375 183.875 C29.210871582031245 183.3927294921875 28.48424316406249 182.910458984375 27.735595703125 182.41357421875 C25.497806152404166 180.93077472250184 23.24916929490763 179.46545874948202 21 178 C19.154460336942748 176.77651025383108 17.312908036964927 175.5472242529601 15.471923828125 174.31689453125 C14.27765346428643 173.51918924786514 13.082166143981453 172.72330304473934 11.885498046875 171.92919921875 C4.148426372887428 166.79148272415887 -3.4985960260905244 161.5209646126625 -11.1533203125 156.26171875 C-12.761201769607794 155.16315563916802 -14.379717185243777 154.08018854317083 -16 153 C-16.384760856628418 151.00475883483887 -16.384760856628418 151.00475883483887 -16.398727416992188 148.50753784179688 C-16.411265563964847 147.56240325927735 -16.423803710937506 146.61726867675782 -16.436721801757813 145.64349365234375 C-16.435286712646487 144.6034014892578 -16.433851623535162 143.56330932617186 -16.432373046875 142.49169921875 C-16.437468872070312 141.9453532409668 -16.437468872070312 141.9453532409668 -16.4632568359375 139.18051147460938 C-16.49354199550325 135.5551857139028 -16.50267658738329 131.93012347457983 -16.51171875 128.3046875 C-16.528553898164674 125.79646922792779 -16.546702537986533 123.28825945306517 -16.566116333007813 120.78005981445313 C-16.608875580366288 114.84443465001118 -16.63834926434106 108.90883691972093 -16.66143971681595 102.97311127185822 C-16.691111940403175 95.55359707492539 -16.741316334737263 88.13424615544633 -16.791015625 80.71484375 C-16.877199286898275 67.47662695346668 -16.94504807525533 54.23838137068668 -17 41 C-18.79100755894558 41 -19.905523634544608 42.60196146377129 -21.1875 43.75 Z M21 136 C18.625 137.328125 18.625 137.328125 16 139.25 C15.133749999999992 139.87390625 14.267500000000013 140.4978125 13.375 141.140625 C11.422940456143607 142.66888214288758 9.692455323563195 144.19619893146555 8 146 C19.783877169241606 154.91344555109302 31.976953536937827 163.1890992457467 44.35107421875 171.2607421875 C46.02373462910862 172.358994055094 47.68370363026088 173.47705596717637 49.32470703125 174.6220703125 C54.28223358314119 177.99054187737667 54.28223358314119 177.99054187737667 57.66796875 178.03515625 C60.488020964985395 176.78337427852406 62.8240428403808 175.26236858372076 65.3125 173.4375 C66.19550781250001 172.7968359375 67.078515625 172.15617187499998 67.98828125 171.49609375 C68.65214843749999 171.0023828125 69.316015625 170.508671875 70 170 C65.8007542371424 165.45363916400294 61.08708749050476 162.06243595874164 56 158.5625 C55.13511962890624 157.96284423828126 54.270239257812506 157.3631884765625 53.379150390625 156.745361328125 C46.76541496486476 152.1768539535741 40.11229527340362 147.66624111420106 33.4375 143.1875 C32.539667968749995 142.58301025390625 31.64183593749999 141.9785205078125 30.716796875 141.355712890625 C29.88083984375001 140.79875732421874 29.044882812499992 140.2418017578125 28.18359375 139.66796875 C27.446813964843756 139.17578857421876 26.71003417968751 138.6836083984375 25.950927734375 138.176513671875 C24 137 24 137 21 136 Z " fill="#8373EC" transform="translate(142,31)"/>
<path d="M0 0 C0.6599999999999682 -1.9799999999999898 1.3199999999999932 -3.960000000000008 2 -6 C7.940000000000055 -6 13.879999999999995 -6 20 -6 C20.068056859133094 3.832296592302896 20.12297722004996 13.664434082532864 20.155436515808105 23.49691390991211 C20.171023454371152 28.0636248233817 20.192132670837054 32.630164781482335 20.226318359375 37.19677734375 C20.259162633233018 41.612354593831924 20.276905297118674 46.02776847720284 20.284631729125977 50.443458557128906 C20.29013061766784 52.11938291004003 20.300867218662006 53.79529937671299 20.317190170288086 55.471153259277344 C20.451776994710826 69.87543791237181 19.690629016306957 82.68414587460623 9.37109375 93.74609375 C-1.8311863531736208 104.16863277870681 -15.628028945286246 103.62925397554619 -30.01171875 103.19677734375 C-37.32623476720204 102.71511885438196 -44.85159601860687 101.09893598759544 -51 97 C-51.22107787301377 94.21147109505293 -51.281075353572874 91.65346819070209 -51.1875 88.875 C-51.173964843750014 88.12089843749999 -51.16042968750003 87.366796875 -51.146484375 86.58984375 C-51.11109984924798 84.72625872705902 -51.05729166968206 82.86304022151364 -51 81 C-48.12616685196576 79.56308342598288 -46.29964361570683 80.69575345045024 -43.380859375 81.640625 C-43.018955078124975 81.76179687500002 -43.018955078124975 81.76179687500002 -41.1875 82.375 C-29.790367741595674 86.12934944982732 -19.440513102600505 87.9509806702633 -8 83 C-4.849741391297016 81.10593955551121 -2.6000628781105206 78.9546454879031 -0.625 75.8125 C0.32184673610561276 71.55168968752486 0.15187847086065176 67.34541180518013 0 63 C-0.5336718749999818 63.40992187500001 -1.0673437500000205 63.81984375000002 -1.6171875 64.2421875 C-9.218761036278579 69.73951922692811 -17.53669996046426 72.26286672971275 -27 71 C-36.66158667266217 69.14726330215359 -43.704365830291465 65.67067340172065 -50 58 C-57.4549216588527 46.148195975007695 -58.38848729618951 33.44550076032476 -56.57421875 19.796875 C-54.40891032073131 10.498004444858424 -48.893260597186725 2.3674172060869694 -41 -3 C-26.734188928554715 -10.695685238541131 -13.171908156104166 -8.781272104069444 0 0 Z M-32.8125 14.625 C-37.880825356032574 21.593947364544817 -38.88321988604508 29.590751507514398 -38 38 C-36.738884256014444 44.58961379740194 -33.47138704258384 48.27896720146424 -28 52 C-23.404581396416688 54.732411061590085 -18.195208687543868 54.63356203506632 -13 54 C-7.04976794862057 52.1818735398563 -3.5727419755197047 48.98018578405774 0 44 C2.1164061677470727 39.76718766450574 1.494502798058818 34.400920277183644 1.625 29.75 C1.6958984374999773 28.6169140625 1.7667968750000114 27.483828125000002 1.83984375 26.31640625 C2.0228596183511627 18.099957002444825 2.0228596183511627 18.099957002444825 -0.940185546875 14.91357421875 C-3.240243017101875 13.361542740513585 -5.467219407718346 12.126108557716265 -8 11 C-9.010625000000005 10.546249999999986 -10.021250000000009 10.092500000000001 -11.0625 9.625 C-19.334037514598947 7.865098401149169 -26.533925662415868 8.764997284921463 -32.8125 14.625 Z " fill="#EFEFF0" transform="translate(510,144)"/>
<path d="M0 0 C7.904187747805565 7.512475788622282 11.9067547429039 17.930050546204512 12.39453125 28.6875 C12.43283980828204 31.64074158392509 12.455680749839871 34.55350367671247 12.25 37.5 C11.25 38.5 11.25 38.5 9.041732788085938 38.62025451660156 C8.0668843078613 38.61803390502931 7.092035827636721 38.61581329345702 6.087646484375 38.613525390625 C4.986580657958996 38.61344985961915 3.8855148315429915 38.613374328613276 2.7510833740234375 38.61329650878906 C1.5531867980956804 38.60813522338867 0.3552902221679801 38.60297393798828 -0.87890625 38.59765625 C-2.098273773193341 38.59624130249023 -3.317641296386739 38.594826354980455 -4.5739593505859375 38.59336853027344 C-8.486830698255062 38.58774966949363 -12.399645809464687 38.575193962912294 -16.3125 38.5625 C-18.957681468103942 38.557487430435174 -21.602863828779448 38.552924103702736 -24.248046875 38.548828125 C-30.74871725902301 38.537774111303605 -37.24935461369358 38.52101763660556 -43.75 38.5 C-41.929776088143285 45.493923409071044 -39.48622905061006 49.03158670562209 -33.3125 52.8125 C-22.65371089254529 57.65559970618051 -11.098875434644583 53.862605729291204 -0.5859375 50.59375 C3.25 49.5 3.25 49.5 7.25 49.5 C7.25 54.78 7.25 60.06 7.25 65.5 C-8.380110964792891 72.40632810072242 -24.209341534307555 75.69199606095171 -40.77734375 69.8203125 C-50.96240819089974 65.29659136856228 -56.92360163589649 58.81926647113761 -61.5625 48.8125 C-65.8390568109275 36.88315731688647 -64.92890935484371 22.96976101234509 -59.75 11.5 C-57.72002865857496 8.158586777109804 -55.44765760084857 5.323395878854228 -52.75 2.5 C-52.20343750000001 1.9250781249999989 -51.656875000000014 1.3501562499999977 -51.09375 0.7578125 C-37.455839879693485 -12.172470208403837 -14.221336758499888 -11.381801964789418 0 0 Z M-41.25 15.4375 C-43.87598274934561 18.95045032691715 -43.75 19.67953116896686 -43.75 24.5 C-31.870000000000005 24.5 -19.99000000000001 24.5 -7.75 24.5 C-8.847741298674975 16.815810909275086 -10.304096848138556 14.490130141297954 -15.75 9.5 C-24.531903422897187 3.953534680275453 -35.218442717612334 7.96514917474687 -41.25 15.4375 Z " fill="#EDEDEE" transform="translate(433.75,144.5)"/>
<path d="M0 0 C8.221665874716109 7.828772107251751 11.863491931730323 18.39377673034315 12.39453125 29.53125 C12.432433251419752 32.20506391834252 12.458063502765413 34.833883952936844 12.25 37.5 C11.25 38.5 11.25 38.5 9.041732788085938 38.62025451660156 C8.0668843078613 38.61803390502931 7.092035827636664 38.61581329345702 6.087646484375 38.613525390625 C4.986580657958939 38.61344985961915 3.8855148315429915 38.613374328613276 2.7510833740234375 38.61329650878906 C1.5531867980956804 38.60813522338867 0.3552902221679233 38.60297393798828 -0.87890625 38.59765625 C-2.098273773193341 38.59624130249023 -3.3176412963866824 38.594826354980455 -4.5739593505859375 38.59336853027344 C-8.486830698255062 38.58774966949363 -12.399645809464687 38.575193962912294 -16.3125 38.5625 C-18.957681468103942 38.557487430435174 -21.60286382877939 38.552924103702736 -24.248046875 38.548828125 C-30.74871725902301 38.537774111303605 -37.24935461369364 38.52101763660556 -43.75 38.5 C-43.298741303846896 39.778094475260815 -42.84030721158729 41.05365685555998 -42.37890625 42.328125 C-42.1243969726562 43.038720703124994 -41.869887695312514 43.74931640624999 -41.607666015625 44.4814453125 C-39.53150958499418 49.36777078032105 -35.81692513056851 51.693828544251375 -31.1875 53.875 C-21.414059398022914 57.396313158065254 -12.029483502270978 54.268701390743814 -2.536865234375 51.228759765625 C0.9354023582334321 50.120331513303796 3.5639879486516293 49.5 7.25 49.5 C7.25 54.78 7.25 60.06 7.25 65.5 C-8.41595965278566 72.42216821867271 -24.233216620651774 75.66648079175113 -40.84375 69.828125 C-45.46114678509525 67.71802431863924 -49.0925548611134 64.99456296670948 -52.75 61.5 C-53.32492187499997 60.95343750000001 -53.899843749999945 60.406875000000014 -54.4921875 59.84375 C-62.66034342291698 51.228580568863634 -64.25654834899933 39.921515871648296 -64.0234375 28.4921875 C-63.46489016948158 17.028141795400046 -58.874099422985864 8.23224662626825 -50.61328125 0.5 C-36.34024877772822 -11.456466992479022 -14.547020516827388 -11.68133033154254 0 0 Z M-40.0625 13.75 C-41.75 16.5 -41.75 16.5 -44.75 24.5 C-32.539999999999964 24.5 -20.33000000000004 24.5 -7.75 24.5 C-8.986842105263122 15.842105263157919 -8.986842105263122 15.842105263157919 -12.75 11.5 C-17.3207515477377 8.159835407422435 -21.86989147141503 6.830702681642549 -27.51171875 7.11328125 C-32.58203280589919 7.989304097354307 -36.40323968200914 10.189638609522348 -40.0625 13.75 Z " fill="#EEEEEF" transform="translate(717.75,144.5)"/>
<path d="M0 0 C0.43570312500003183 0.040605468749987494 0.43570312500003183 0.040605468749987494 2.640625 0.24609375 C10.592463685864573 1.323367985375512 17.45075919840542 4.024556369228463 22.88671875 10.11328125 C29.04380695352836 18.745131298045862 29.288404023855833 27.313902778352315 29.1953125 37.59375 C29.192482604980455 38.781016845703135 29.18965270996091 39.96828369140624 29.186737060546875 41.1915283203125 C29.175595979339732 44.96112400851416 29.150502262846658 48.730476846394936 29.125 52.5 C29.11496236779317 55.06510072071637 29.105837888530345 57.63020518796196 29.09765625 60.1953125 C29.07567647376527 66.4636343794084 29.041188288888634 72.73177609714236 29 79 C23.059999999999945 79 17.120000000000005 79 11 79 C10.340000000000032 77.35 9.67999999999995 75.69999999999999 9 74 C8.180156249999982 74.42152343750001 7.360312499999964 74.843046875 6.515625 75.27734375 C5.437968749999982 75.8251953125 4.360312499999964 76.373046875 3.25 76.9375 C2.1826562500000364 77.48277343749999 1.115312499999959 78.028046875 0.015625 78.58984375 C-8.133080125078095 82.40031337455076 -17.223140981085407 81.91369187450974 -25.64453125 79.03515625 C-31.734726625883013 76.35870222908957 -36.69924701653338 72.62585850172383 -39.375 66.40234375 C-41.054614961100015 59.946323743271904 -41.17200748563641 52.72993896111072 -38.4375 46.5625 C-33.718095107218346 38.77875929141922 -26.661451231670412 35.170929293284985 -18 33 C-11.653342352212576 31.974848057623035 -5.352459748794217 31.872802966071106 1.0625 31.9375 C1.9281054687500045 31.942011718749995 2.793710937500009 31.94652343749999 3.685546875 31.951171875 C5.79039538766483 31.962800872307525 7.895207579440012 31.980729265732407 10 32 C9.824307944789098 30.4127131563709 9.607876905691342 28.829909987631538 9.375 27.25 C9.258984374999955 26.368281249999995 9.142968750000023 25.48656249999999 9.0234375 24.578125 C7.527988181820774 20.810962595426417 5.581672365879285 19.794972063269768 2 18 C-1.65625 17.5390625 -1.65625 17.5390625 -5.5 17.625 C-6.134218749999945 17.631445312500006 -6.134218749999945 17.631445312500006 -9.34375 17.6640625 C-12.943693269837581 17.994826518382524 -15.719073264753433 18.48498383107733 -19 20 C-19.659999999999968 21.319999999999993 -20.32000000000005 22.639999999999986 -21 24 C-25.620000000000005 24 -30.24000000000001 24 -35 24 C-35.494850457279426 11.628738568015166 -35.494850457279426 11.628738568015166 -33.1953125 8.70703125 C-24.1237499192448 1.6531649727935473 -11.355288827084564 -1.1073419955490351 0 0 Z M-19.9375 50.8125 C-21.39361756298331 53.81038910025978 -21.47120129890152 55.70159090768942 -21 59 C-18.59747593452073 62.915224403003236 -16.464716410323263 64.88382089741918 -12 66 C-4.888477689480737 66.57350986375155 -0.16246494801430345 65.17858696418762 5.8125 61.0625 C8.57649810662906 58.45644464232117 9.878696960975276 56.465340711419344 10.1953125 52.640625 C10.172109374999991 51.85171875 10.148906249999982 51.06281250000001 10.125 50.25 C10.115976562500009 49.85039062499999 10.115976562500009 49.85039062499999 10.0703125 47.828125 C10.047109374999991 47.22484374999999 10.023906249999982 46.62156250000001 10 46 C6.646001509316989 45.91210459539266 3.292303597929049 45.859311212994356 -0.0625 45.8125 C-1.005449218749959 45.78736328125001 -1.9483984375000318 45.76222656249999 -2.919921875 45.736328125 C-9.528241782991472 45.667251610282335 -14.893323573607745 46.09375431079434 -19.9375 50.8125 Z " fill="#EEEEEE" transform="translate(581,136)"/>
<path d="M0 0 C8.226713840086632 9.642400734174146 10.30799686411467 21.18896638026149 10.2109375 33.49609375 C10.04296875 35.39453125 10.04296875 35.39453125 9.04296875 36.39453125 C7.324314662682241 36.48812314656064 5.601811313533517 36.51197736062309 3.880615234375 36.508056640625 C2.779549407958939 36.50798110961915 1.6784835815429915 36.507905578613276 0.5440521240234375 36.50782775878906 C-0.6538444519043196 36.50266647338867 -1.8517410278320767 36.49750518798828 -3.0859375 36.4921875 C-4.305305023193341 36.49077255249023 -5.524672546386682 36.489357604980455 -6.7809906005859375 36.48789978027344 C-10.693861948255062 36.48228091949363 -14.606677059464687 36.469725212912294 -18.51953125 36.45703125 C-21.164712718103942 36.452018680435174 -23.80989507877939 36.447455353702736 -26.455078125 36.443359375 C-32.95574850902301 36.432305361303605 -39.45638586369353 36.41554888660556 -45.95703125 36.39453125 C-45.353876144554306 37.83780199027504 -44.74137175630449 39.277167719390434 -44.125 40.71484375 C-43.78492919921871 41.516801757812516 -43.44485839843753 42.318759765625 -43.094482421875 43.14501953125 C-40.668262362797236 47.94330062683758 -36.661365815959016 50.313345096700175 -31.83203125 52.26953125 C-21.507737809170408 55.25362935416004 -11.395671103216841 51.58102968833646 -1.546875 48.453125 C2.04296875 47.39453125 2.04296875 47.39453125 5.04296875 47.39453125 C5.04296875 52.67453125 5.04296875 57.95453125 5.04296875 63.39453125 C-10.348028748418415 70.27521248458703 -25.58576234904433 73.35658466322792 -41.98046875 67.65234375 C-52.91691951828773 63.03090392403061 -59.49450354842713 55.28767579332674 -63.95703125 44.39453125 C-67.08571850642102 33.57317344788743 -66.30653771990649 19.26287548330575 -60.95703125 9.39453125 C-60.52132812499997 8.587578124999993 -60.08562500000005 7.780624999999986 -59.63671875 6.94921875 C-54.30845834068134 -1.8729829113309506 -46.7273584160946 -6.674370600171613 -36.95703125 -9.60546875 C-23.527415520885825 -12.589827800914236 -9.997364115034202 -9.537308421244973 0 0 Z M-42.89453125 12.76953125 C-45.248737116141115 16.13724269241203 -45.20016284605458 17.853320826327746 -45.95703125 22.39453125 C-34.077031250000005 22.39453125 -22.19703125000001 22.39453125 -9.95703125 22.39453125 C-11.141813858695627 12.916270380434781 -11.141813858695627 12.916270380434781 -14.95703125 9.39453125 C-24.253218792277607 2.979741203858225 -35.7145767245006 3.4911372929792606 -42.89453125 12.76953125 Z " fill="#EFF0F0" transform="translate(952.95703125,146.60546875)"/>
<path d="M0 0 C0.9203906249999818 -0.019980468749992042 1.8407812499999636 -0.039960937500012506 2.7890625 -0.060546875 C10.965444496419536 -0.05478885950955714 17.449339952071 2.1597180824606426 24.3125 6.5625 C30.215912418024573 12.8777784006775 33.1331873713566 20.367806088516062 33.113525390625 28.9404296875 C33.11348762512205 29.49084930419923 33.11348762512205 29.49084930419923 33.11329650878906 32.27630615234375 C33.10813522338867 33.45871887207031 33.10297393798828 34.641131591796864 33.09765625 35.859375 C33.09624130249017 37.07449768066405 33.094826354980455 38.28962036132813 33.09336853027344 39.54156494140625 C33.0877698768345 43.423568308107804 33.075217595190566 47.305514056746745 33.0625 51.1875 C33.057484827425355 53.81900958386561 33.05292195072889 56.45052007150895 33.048828125 59.08203125 C33.037800882264264 65.53387637631096 33.020537140197575 71.98567841794022 33 78.4375 C27.059999999999945 78.4375 21.120000000000005 78.4375 15 78.4375 C14.340000000000032 76.7875 13.67999999999995 75.13749999999999 13 73.4375 C12.180156249999982 73.85902343750001 11.360312499999964 74.280546875 10.515625 74.71484375 C9.437968749999982 75.2626953125 8.360312499999964 75.810546875 7.25 76.375 C6.182656250000036 76.92027343749999 5.115312499999959 77.465546875 4.015625 78.02734375 C-4.133080125078095 81.83781337455076 -13.223140981085407 81.35119187450974 -21.64453125 78.47265625 C-27.786661401916376 75.7733784883784 -32.67447398271884 72.03960691112673 -35.37890625 65.77734375 C-37.344319218360965 58.373052127055075 -36.786550393163566 51.06396318803627 -33 44.4375 C-29.17685392157648 38.49038387800789 -24.309236941431664 35.38895300377931 -17.58984375 33.45703125 C-7.0432578746599575 31.20835978708965 3.2542629345806517 31.122135977427916 14 31.4375 C13.743793159939969 29.83093240291754 13.469441285724656 28.227251696923048 13.1875 26.625 C13.036679687500055 25.73167968749999 12.885859374999995 24.83835937500001 12.73046875 23.91796875 C11.930362920532275 21.201031842449026 11.224976158010918 20.14529041668152 9 18.4375 C2.6608205658251336 16.324440188608378 -5.9909452393320635 16.21720453540769 -12.25 18.75 C-15 20.4375 -15 20.4375 -17 23.4375 C-20.2578125 23.73046875 -20.2578125 23.73046875 -24.125 23.625 C-25.40632812499996 23.5979296875 -26.687656250000032 23.570859374999998 -28.0078125 23.54296875 C-28.995234374999995 23.508164062499986 -29.98265624999999 23.473359375 -31 23.4375 C-31.59115157889596 18.642603860066373 -31.851417267156535 14.210758053996074 -31 9.4375 C-28.17972452920128 6.188307634684037 -25.011295828177822 4.848881865469963 -21 3.4375 C-20.27522460937496 3.1762231445312636 -19.550449218750032 2.914946289062499 -18.8037109375 2.645751953125 C-12.45742025946572 0.5229968302091095 -6.666178362343658 -0.05135011343543283 0 0 Z M-15 49.4375 C-17.360861223491156 52.97879183523676 -17.5726957789351 54.265002182043986 -17 58.4375 C-14.936308044154316 61.86640355740508 -12.876779181251095 64.14524027291631 -9 65.4375 C-2.7163672287670124 66.00873934283936 2.4453162126125108 65.70496105140444 8 62.4375 C10.942109483202103 59.57180894493297 13.905862984050373 56.52357627344293 14.09765625 52.2734375 C14.086054687499995 51.461328124999994 14.074453124999991 50.64921874999999 14.0625 49.8125 C14.053476562500009 48.995234374999995 14.044453125000018 48.17796874999999 14.03515625 47.3359375 C14.023554687499995 46.70945312500001 14.011953124999991 46.08296874999999 14 45.4375 C10.666969965479552 45.32001249878317 7.334481630317214 45.24982675944517 4 45.1875 C3.0654296875 45.15398437499999 2.130859375 45.120468749999986 1.16796875 45.0859375 C-5.001034899305296 44.99965772868103 -9.94310311821016 45.67651215621271 -15 49.4375 Z " fill="#EFEFF0" transform="translate(773,136.5625)"/>
<path d="M0 0 C1.05010253906255 0.008459472656255684 2.1002050781249864 0.01691894531251137 3.18212890625 0.025634765625 C11.861667892635865 0.22359858199919813 19.353485128599687 1.5829925642998148 27.1875 5.5 C27.1875 10.780000000000001 27.1875 16.060000000000002 27.1875 21.5 C19.707107843137237 20.431372549019613 19.707107843137237 20.431372549019613 15.875 18.9375 C10.840000525132155 17.349957661710903 6.046036140212209 17.200566853441046 0.8125 17.1875 C0.4197790527343841 17.18488159179688 0.4197790527343841 17.18488159179688 -1.567626953125 17.171630859375 C-8.815238179935363 17.259778536549646 -8.815238179935363 17.259778536549646 -11.8125 19.5 C-12.6875 21.9375 -12.6875 21.9375 -12.8125 24.5 C-10.516065203482867 27.944652194775756 -9.961506694328364 28.03657230994446 -6.125 29 C-5.142734375000032 29.250078125000016 -4.16046874999995 29.500156250000003 -3.1484375 29.7578125 C0.46998539623052693 30.56284803897401 4.1022352062049094 31.21647856663739 7.75 31.875 C16.170844117533875 33.54376484036493 23.244579095812014 35.605239386500415 28.75 42.5 C30.73581489882929 45.49830080499288 32.00489570800619 47.84791416012365 32.1875 51.5 C32.26999999999998 52.75812500000001 32.352499999999964 54.016250000000014 32.4375 55.3125 C32.337440296981754 61.94145532495946 29.880249786974105 67.8072502130259 25.1875 72.5 C15.02287147533309 80.74491659991142 1.7689057215136472 81.60985425927328 -10.8125 80.5 C-18.166105390944153 79.41358794726756 -25.1454883224676 77.8335058387662 -31.8125 74.5 C-32.45419660339098 68.80494264490488 -32.9371232182483 63.23266803942431 -32.8125 57.5 C-32.48249999999996 57.33500000000001 -32.48249999999996 57.33500000000001 -30.8125 56.5 C-28.785964020934557 57.198094516044335 -26.789645104818646 57.984803641261095 -24.8125 58.8125 C-14.623624442889536 62.83883940785921 -2.4122010946641694 66.20296596856741 8.375 62.3125 C11.1875 60.5 11.1875 60.5 12.25 58.0625 C12.179963379795595 55.19099857162121 11.738184409800851 53.8960731067327 10.1875 51.5 C8.3671875 50.55859375 8.3671875 50.55859375 6.0625 49.9375 C5.1730468749999545 49.6964453125 4.283593750000023 49.45539062500001 3.3671875 49.20703125 C0.3472516931251448 48.535522182377946 -2.6784288397921046 47.99266593553719 -5.728759765625 47.4794921875 C-14.634678005324304 45.964390455333245 -21.90101324042928 43.92255091462442 -28.8125 37.875 C-32.34862539041171 31.907788403680314 -33.47056380603908 25.530506965542003 -32.1875 18.6875 C-30.453910799627465 12.503997119690439 -27.191944942041346 8.00833365785303 -21.8125 4.5 C-14.524918109381133 0.8063772127699451 -8.107814553164985 -0.1456842576634756 0 0 Z " fill="#F0F0F1" transform="translate(849.8125,136.5)"/>
<path d="M0 0 C0.8043749999999932 -0.0012890625000068212 1.6087499999999864 -0.0025781249999994316 2.4375 -0.00390625 C3.283124999999984 -0.000039062499993747224 4.128750000000025 0.0038281249999982947 5 0.0078125 C5.4228125000000205 0.005878906250003979 5.4228125000000205 0.005878906250003979 7.5625 -0.00390625 C8.366874999999993 -0.002617187499993179 9.171249999999986 -0.0013281250000005684 10 0 C10.742500000000007 0.0011279296874988631 11.485000000000014 0.0022558593749977263 12.25 0.00341796875 C14 0.1328125 14 0.1328125 15 1.1328125 C15.095193678196097 3.9327096957277945 15.125539441157684 6.707874240845783 15.113525390625 9.508056640625 C15.113671417236333 10.38602401733398 15.113817443847665 11.26399139404296 15.113967895507813 12.168563842773438 C15.1132684433353 15.08505684921245 15.105474553036743 18.001486832853075 15.09765625 20.91796875 C15.095792184844527 22.93436142062359 15.094368228219253 24.950754542720176 15.093368530273438 26.967147827148438 C15.089542442487186 32.28546387695155 15.079711387144926 37.60375280421755 15.06866455078125 42.92205810546875 C15.058452378475067 48.344519378826874 15.053871327817092 53.76698501612145 15.048828125 59.189453125 C15.038089198954083 69.83725152843118 15.021011693211051 80.48502976278309 15 91.1328125 C15.586598968505882 91.13059188842772 16.173197937011707 91.12837127685549 16.777572631835938 91.12608337402344 C22.860253840103212 91.10403040100158 28.942923771025505 91.08890585574017 35.025634765625 91.077880859375 C37.29842591251355 91.07283924752858 39.57121379814504 91.06600612636697 41.843994140625 91.057373046875 C45.10303551320635 91.04529989295611 48.36203416732542 91.03958262928771 51.62109375 91.03515625 C52.644000091552755 91.02999496459961 53.66690643310545 91.02483367919922 54.72080993652344 91.01951599121094 C55.66170974731443 91.01944046020509 56.602609558105485 91.01936492919921 57.572021484375 91.019287109375 C58.40475082397461 91.01706649780272 59.23748016357422 91.01484588623049 60.09544372558594 91.01255798339844 C62 91.1328125 62 91.1328125 63 92.1328125 C63 97.74281250000001 63 103.3528125 63 109.1328125 C40.56 109.1328125 18.120000000000005 109.1328125 -5 109.1328125 C-5.040108809335038 82.21980143620806 -5.040108809335038 82.21980143620806 -5.048828125 70.791015625 C-5.054817299541185 62.97761357870888 -5.061919575403408 55.16422319488737 -5.075439453125 47.350830078125 C-5.086265848888445 41.05500090878036 -5.0922763053139875 34.75918423729388 -5.094877243041992 28.463346481323242 C-5.096731941366727 26.055463059214276 -5.10035339800379 23.647580358257642 -5.105730056762695 21.239702224731445 C-5.112937196669236 17.879919637899008 -5.113991080104256 14.520189400714273 -5.113525390625 11.160400390625 C-5.117120666503922 10.154115905761714 -5.1207159423827875 9.147831420898441 -5.124420166015625 8.111053466796875 C-5.123045501708987 7.200950164794918 -5.121670837402348 6.290846862792975 -5.1202545166015625 5.3531646728515625 C-5.120715413093592 4.955411000251772 -5.120715413093592 4.955411000251772 -5.123047828674316 2.9425363540649414 C-4.887469495990899 -0.5222279798630751 -3.0023701094863213 0.004560892093408597 0 0 Z " fill="#EDEDEE" transform="translate(306,105.8671875)"/>
<path d="M0 0 C1.3945686665042558 0.005742014698057574 2.7891097229959314 0.018753970927292585 4.18359375 0.03515625 C6.637968750000027 0.05578124999999545 9.092343750000055 0.07640625000000512 11.62109375 0.09765625 C11.62109375 7.687656250000003 11.62109375 15.277656250000007 11.62109375 23.09765625 C12.611093750000009 23.09765625 13.601093750000018 23.09765625 14.62109375 23.09765625 C14.62109375 51.477656249999995 14.62109375 79.85765624999999 14.62109375 109.09765625 C8.681093749999945 109.09765625 2.7410937500000045 109.09765625 -3.37890625 109.09765625 C-4.930650706509368 107.54591179349066 -4.504854995825099 106.08177649042739 -4.505889892578125 103.9219970703125 C-4.5087097167968295 103.02175308227538 -4.511529541015648 102.12150909423826 -4.514434814453125 101.19398498535156 C-4.512410583496148 100.19862228393555 -4.510386352539058 99.20325958251954 -4.50830078125 98.177734375 C-4.510053100585992 97.13556259155274 -4.5118054199218705 96.09339080810548 -4.51361083984375 95.01963806152344 C-4.518031630340261 91.55604412020915 -4.515090563236072 88.09250075939786 -4.51171875 84.62890625 C-4.512391723743917 82.23376454802258 -4.513361693261004 79.8386229123953 -4.514617919921875 77.4434814453125 C-4.516095201494977 72.416253170662 -4.513939364258249 67.3890426257451 -4.50927734375 62.36181640625 C-4.503580045910553 55.901589343659566 -4.506858888965098 49.44140382036679 -4.512849807739258 42.981178283691406 C-4.516454603589068 38.033138876838734 -4.515317210475928 33.08510939991032 -4.512722015380859 28.137069702148438 C-4.512052520105499 25.754308015485492 -4.512881948370364 23.37154544168135 -4.515201568603516 20.988784790039063 C-4.5177267582861305 17.66502476209571 -4.513889380067667 14.34133303506485 -4.50830078125 11.017578125 C-4.510325012206977 10.022215423583987 -4.512349243164067 9.026852722167973 -4.514434814453125 8.001327514648438 C-4.5116149902344205 7.101083526611333 -4.508795166015602 6.200839538574215 -4.505889892578125 5.2733154296875 C-4.505512866973845 4.4864812469482445 -4.505135841369679 3.699647064208989 -4.50474739074707 2.8889694213867188 C-4.273554791565289 -0.401992068495602 -3.382078495651058 0.09774793340031351 0 0 Z " fill="#EAEAEA" transform="translate(628.37890625,105.90234375)"/>
<path d="M0 0 C0.3299999999999841 0.16499999999999915 0.3299999999999841 0.16499999999999915 2 1 C2.329999999999984 41.59 2.6599999999999966 82.18 3 124 C3.6599999999999966 124 4.319999999999993 124 5 124 C5 124.66 5 125.32 5 126 C3.680000000000007 126 2.3600000000000136 126 1 126 C0.6700000000000159 86.07 0.3400000000000034 46.14 0 5 C-1.3199999999999932 5 -2.6399999999999864 5 -4 5 C-4.288749999999993 5.763125000000002 -4.577499999999986 6.526249999999997 -4.875 7.3125 C-6.344558936319942 10.823113014542102 -7.26692386814733 12.641816078026395 -10.7421875 14.33984375 C-14.52430082713822 16.267179678098017 -17.10916495189541 18.627652849606662 -20.125 21.5625 C-23.235746789802874 24.56746572768111 -26.05382226213618 27.14921002790271 -30 29 C-32.13396050667298 30.779642535753695 -34.155299230846765 32.653012496443246 -36.1953125 34.5390625 C-38 36 -38 36 -40 36 C-40.10892578125001 36.27779296874999 -40.10892578125001 36.27779296874999 -40.66015625 37.68359375 C-42.44708273535707 40.77294478736658 -44.76342270472297 42.7080335368278 -47.4375 45.0625 C-50.36229776615957 47.65236752928911 -53.24976781401777 50.22678537235218 -56 53 C-57.323680140498254 54.1982507723462 -58.65755115519089 55.3853147440405 -60 56.5625 C-60.68062499999999 57.1619140625 -61.36125 57.761328125000006 -62.0625 58.37890625 C-66.39036144578313 62 -66.39036144578313 62 -70 62 C-70.103125 62.59812500000001 -70.20625 63.19624999999999 -70.3125 63.8125 C-71.11316103342719 66.36005783363198 -71.86057532297207 67.41524097997932 -74 69 C-75.32 69 -76.64 69 -78 69 C-77.999078207016 69.54315321922303 -77.99815641403198 70.08630643844604 -77.99720668792725 70.64591884613037 C-77.97507368165115 83.89290655522927 -77.95861454764261 97.13989100212206 -77.94818782806396 110.3868932723999 C-77.94297554085446 116.79317350215257 -77.93590794819657 123.1994403571291 -77.924560546875 129.605712890625 C-77.91367286721031 135.791353286903 -77.90771069895939 141.97698083981967 -77.90512275695801 148.16263008117676 C-77.90327910475806 150.51924402428511 -77.89967893866886 152.87585728721572 -77.8942699432373 155.23246574401855 C-77.88698147141977 158.54032774661886 -77.88601234937823 161.8481370824994 -77.886474609375 165.156005859375 C-77.88287933349609 166.12417739868164 -77.87928405761718 167.09234893798828 -77.87557983398438 168.08985900878906 C-77.8841894079241 173.80604844054653 -78.26875058078882 179.32949499225137 -79 185 C-79.66 185 -80.32 185 -81 185 C-81.2340559510139 170.16170774111487 -81.41016264817148 155.32366115214168 -81.51812171936035 140.48389530181885 C-81.5695921737982 133.59271948709556 -81.63970292025624 126.70269340811433 -81.75439453125 119.812255859375 C-81.8650716198902 113.1598062938973 -81.92287923388282 106.50823504036069 -81.94877243041992 99.85482597351074 C-81.96721901056507 97.3193935421624 -82.00324302687622 94.78402484720482 -82.05730056762695 92.24910163879395 C-82.486003598888 71.30893079015627 -82.486003598888 71.30893079015627 -78.84124755859375 66.51095581054688 C-76.32401491309228 64.21746372105666 -73.97455310209644 62.62896815069132 -71 61 C-69.70141596935343 59.907149655048414 -68.42461668693377 58.786974467886935 -67.1875 57.625 C-63.22728038212388 54.17270434113004 -59.21231583432352 50.78543952303379 -55.19775390625 47.396728515625 C-49.95800429174567 42.9719013990063 -44.74930664840063 38.51156703023216 -39.546875 34.04296875 C-37.16616839054876 31.998323211661898 -34.7804719105128 29.95973474221752 -32.390625 27.92578125 C-26.957690996534836 23.296413341664 -21.568898409743326 18.64330933395445 -16.3125 13.8125 C-11.04958817037084 8.980332442141076 -5.576684275023979 4.465662069361578 0 0 Z " fill="#2F76BD" transform="translate(142,31)"/>
<path d="M0 0 C0.9899999999999949 0 1.980000000000004 0 3 0 C3.0021159696578934 0.2781130313873348 3.0021159696578934 0.2781130313873348 3.012824058532715 1.6855335235595703 C3.1162166240144273 15.231946581295489 3.2249274263562455 28.77830801927209 3.339339256286621 42.32463264465332 C3.3945080253594 48.87558452224954 3.4479184023224434 55.42654091174532 3.497314453125 61.9775390625 C3.545047112339674 68.2993644768897 3.59739319029336 74.6211363871677 3.6529407501220703 80.94289779663086 C3.673323962088503 83.35500633685047 3.6920436338091918 85.76712952611558 3.709074020385742 88.17926406860352 C3.7332073109895987 91.55722597977822 3.7632497503398668 94.93508745596401 3.794677734375 98.31298828125 C3.8004331970214906 99.31064712524415 3.806188659667967 100.30830596923829 3.8121185302734375 101.33619689941406 C3.861435938007517 105.99844239383043 4.042085468797396 110.41447961093061 5 115 C4.010000000000005 114.67000000000002 3.019999999999996 114.34 2 114 C1.6700000000000017 77.37 1.3400000000000034 40.739999999999995 1 3 C0.3400000000000034 3 -0.3199999999999932 3 -1 3 C-0.6700000000000017 2.010000000000005 -0.3400000000000034 1.019999999999996 0 0 Z " fill="#3E46A0" transform="translate(123,70)"/>
<path d="M0 0 C0.16499999999999204 0.6600000000000001 0.16499999999999204 0.6600000000000001 1 4 C0.21625000000000227 4.061875000000001 -0.5674999999999955 4.123750000000001 -1.375 4.1875 C-2.241250000000008 4.455624999999998 -3.107500000000016 4.723750000000003 -4 5 C-5.1875 7.375000000000014 -5.1875 7.375000000000014 -6 10 C-8 13 -8 13 -10.7421875 14.33984375 C-14.524300827138205 16.267179678098003 -17.109164951895423 18.627652849606676 -20.125 21.5625 C-23.2453904221789 24.576781427973827 -26.075639378212827 27.09842757515718 -30 29 C-32.12284065720499 30.67737409442364 -34.19465904896835 32.369601149477745 -36.25 34.125 C-36.804296875000006 34.5929296875 -37.35859375 35.06085937500001 -37.9296875 35.54296875 C-39.28947326486815 36.69175327549206 -40.64515165163675 37.84539653331308 -42 39 C-42.66 38.67 -43.31999999999999 38.34 -44 38 C-43.091210937499994 37.21238281250001 -42.182421875 36.42476562499999 -41.24609375 35.61328125 C-40.64659912109374 35.09370849609374 -40.0471044921875 34.57413574218751 -39.429443359375 34.038818359375 C-38.08264371987539 32.87161401436927 -36.73580008923497 31.704460427699615 -35.388916015625 30.537353515625 C-31.977021385740315 27.58074703744043 -28.565690307796984 24.62349904046353 -25.15625 21.6640625 C-16.79792854307273 14.410865332909466 -8.410642011268692 7.1924596552451945 0 0 Z " fill="#2E86C4" transform="translate(142,31)"/>
<path d="M0 0 C0.6599999999999966 0.3299999999999983 1.3199999999999932 0.6599999999999966 2 1 C1.2897265624999932 1.759257812499996 0.5794531250000006 2.5185156250000063 -0.15234375 3.30078125 C-1.0809783374338338 4.304457016216361 -2.0093500864035008 5.308376014349221 -2.9375 6.3125 C-3.406074218750007 6.81201171875 -3.8746484374999994 7.3115234375 -4.357421875 7.826171875 C-8.744261420363017 12.591731381113789 -9.12865511538483 15.678374576940797 -9.205322265625 22.041748046875 C-9.215221862792973 22.754196777343736 -9.225121459960931 23.4666455078125 -9.235321044921875 24.20068359375 C-9.266895002234094 26.55432823619921 -9.291677188957863 28.907993058772178 -9.31640625 31.26171875 C-9.336979325704903 32.89411441087066 -9.357975893685733 34.52650478514124 -9.379379272460938 36.15888977050781 C-9.4345634394234 40.45455646338223 -9.483988828997965 44.75027094292716 -9.5322265625 49.0460205078125 C-9.58246827056638 53.4298121241367 -9.638140402761053 57.813534377764654 -9.693359375 62.197265625 C-9.80089624844959 70.79811843046369 -9.90235114020787 79.39902927729264 -10 88 C-10.659999999999997 88 -11.319999999999993 88 -12 88 C-12.124563768769363 78.00253194998476 -12.189161139451102 68.00660145323508 -12.17878246307373 58.008310317993164 C-12.175812789639096 53.36462226551794 -12.192914605992797 48.72287400922693 -12.257080078125 44.07958984375 C-12.318337406052436 39.59187977495449 -12.32531123484172 35.1069676704289 -12.295831680297852 30.618968963623047 C-12.29393902554395 28.91341845243869 -12.311079529322171 27.207729531221702 -12.348226547241211 25.502582550048828 C-12.634833283311337 11.443297326071885 -12.634833283311337 11.443297326071885 -8.464508056640625 6.65985107421875 C-5.866356280142654 4.118414939388302 -3.0374157053480815 1.9985059429346848 0 0 Z " fill="#3B70C2" transform="translate(104,106)"/>
<path d="M0 0 C0.9900000000000091 0.3299999999999983 1.9799999999999898 0.6599999999999966 3 1 C2.2407421874999898 1.6870703124999977 1.481484375000008 2.3741406249999955 0.69921875 3.08203125 C-0.3047238327828836 3.992147423177002 -1.3086280658944105 4.902305900855083 -2.3125 5.8125 C-2.81201171875 6.264316406250003 -3.3115234375 6.716132812500007 -3.826171875 7.181640625 C-6.2748322790104964 9.403272912082372 -8.665926836229005 11.65938881616242 -11 14 C-12.323680140498254 15.198250772346213 -13.657551155190887 16.3853147440405 -15 17.5625 C-15.680624999999992 18.161914062500003 -16.36125 18.761328125000006 -17.0625 19.37890625 C-21.390361445783128 23 -21.390361445783128 23 -25 23 C-25.051562500000003 23.29906249999999 -25.051562500000003 23.29906249999999 -25.3125 24.8125 C-26.133524390254593 27.424850332628225 -26.782150259683604 28.393970877701918 -29 30 C-32.18749999999997 30.6875 -32.18749999999997 30.6875 -35 31 C-26.569633463919345 22.476308373114023 -17.74555060071279 14.403103755154774 -8.37890625 6.91796875 C-6.359963519648744 5.290216893509907 -4.429694127930702 3.605561072959972 -2.5 1.875 C-1.6749999999999972 1.2562499999999943 -0.8499999999999943 0.6375000000000028 0 0 Z " fill="#22A0D3" transform="translate(97,70)"/>
<path d="M0 0 C0.9899999999999949 0 1.980000000000004 0 3 0 C3 18.150000000000006 3 36.30000000000001 3 55 C2.6700000000000017 55 2.3400000000000034 55 2 55 C1.6700000000000017 37.84 1.3400000000000034 20.680000000000007 1 3 C0.3400000000000034 3 -0.3199999999999932 3 -1 3 C-0.6700000000000017 2.010000000000005 -0.3400000000000034 1.019999999999996 0 0 Z " fill="#2C4E93" transform="translate(123,70)"/>
<path d="M0 0 C0.3300000000000125 1.3200000000000003 0.6599999999999966 2.6400000000000006 1 4 C0.21625000000000227 4.061875000000001 -0.5674999999999955 4.123750000000001 -1.375 4.1875 C-2.241250000000008 4.455624999999998 -3.1074999999999875 4.723750000000003 -4 5 C-5.1875 7.375 -5.1875 7.375 -6 10 C-8 13 -8 13 -10.625 13.6875 C-11.408749999999998 13.790624999999999 -12.192499999999995 13.893749999999997 -13 14 C-9.209629106027307 8.529647867306828 -5.249723472333216 4.100375729869725 0 0 Z " fill="#319FEF" transform="translate(142,31)"/>
<path d="M0 0 C0.9899999999999949 0.3299999999999983 1.980000000000004 0.6599999999999966 3 1 C2.2291406249999994 1.6986718750000023 1.4582812499999989 2.3973437500000045 0.6640625 3.1171875 C-0.3489823329576325 4.036431885461553 -1.3620018459011192 4.955704175155262 -2.375 5.875 C-2.6289453124999937 6.1050976562499955 -2.6289453124999937 6.1050976562499955 -3.9140625 7.26953125 C-5.9809181124863215 9.14601858238889 -8.025705483631754 11.025705483631754 -10 13 C-9.552126760625868 8.350261460315878 -7.978144034864499 6.629725324746559 -4.4375 3.6875 C-3.6112109375000045 2.9901171875000045 -2.784921874999995 2.292734374999995 -1.93359375 1.57421875 C-1.2955078125000057 1.0547265624999937 -0.6574218749999972 0.5352343750000017 0 0 Z " fill="#2DA4E0" transform="translate(97,70)"/>
<path d="M0 0 C0.6599999999999966 0.3299999999999983 1.3199999999999932 0.6599999999999966 2 1 C0.5147038946144278 5.455888316156731 -3.0642601009066937 7.7664260910208895 -7 10 C-9.2265625 10.64453125 -9.2265625 10.64453125 -11 11 C-7.638177402490371 6.748283185502515 -4.251716814497485 3.3618225975096294 0 0 Z " fill="#2592C7" transform="translate(86,79)"/>
<path d="M0 0 C0.6599999999999682 0 1.32000000000005 0 2 0 C2 2.6399999999999864 2 5.280000000000001 2 8 C7.279999999999973 8 12.559999999999945 8 18 8 C18 8.330000000000013 18 8.659999999999997 18 9 C12.389999999999986 9 6.779999999999973 9 1 9 C-1 2 -1 2 0 0 Z " fill="#BBBCBF" transform="translate(787,206)"/>
<path d="M0 0 C0.6599999999999682 0 1.32000000000005 0 2 0 C2 2.6399999999999864 2 5.280000000000001 2 8 C7.279999999999973 8 12.559999999999945 8 18 8 C18 8.330000000000013 18 8.659999999999997 18 9 C12.389999999999986 9 6.779999999999973 9 1 9 C-1 2 -1 2 0 0 Z " fill="#BEBFC1" transform="translate(591,206)"/>
<path d="M0 0 C0.660000000000025 0.3300000000000125 1.3199999999999932 0.6599999999999966 2 1 C-1.6299999999999955 4.6299999999999955 -5.259999999999991 8.259999999999991 -9 12 C-9 8.26071501175548 -8.080403983769259 7.590977467761064 -5.625 4.875 C-4.998515624999982 4.171171874999999 -4.3720312500000205 3.4673437499999977 -3.7265625 2.7421875 C-2 1 -2 1 0 0 Z " fill="#ACACAE" transform="translate(469,141)"/>
<path d="M0 0 C1.32000000000005 0.6599999999999966 2.6399999999999864 1.3199999999999932 4 2 C3.669999999999959 2.164999999999992 3.669999999999959 2.164999999999992 2 3 C2 7.949999999999989 2 12.900000000000006 2 18 C1.3400000000000318 18 0.67999999999995 18 0 18 C-0.6401655027981406 12.318531162666886 -1.2434464464000712 6.72099149040119 -1 1 C-0.6699999999999591 0.6699999999999875 -0.34000000000003183 0.3400000000000034 0 0 Z " fill="#ABABAC" transform="translate(818,193)"/>
<path d="M0 0 C0.9899999999999949 0.3299999999999983 1.980000000000004 0.6599999999999966 3 1 C1.7137228906472046 2.1726061089913884 0.4208021692053592 3.3379283037731398 -0.875 4.5 C-1.5942968749999977 5.149687499999999 -2.3135937499999955 5.799374999999998 -3.0546875 6.46875 C-5 8 -5 8 -7 8 C-6.340000000000003 6.680000000000007 -5.680000000000007 5.359999999999999 -5 4 C-4.340000000000003 4 -3.680000000000007 4 -3 4 C-2.6700000000000017 3.010000000000005 -2.3400000000000034 2.019999999999996 -2 1 C-1.3400000000000034 0.6700000000000017 -0.6800000000000068 0.3400000000000034 0 0 Z " fill="#2778AF" transform="translate(90,99)"/>
<path d="M0 0 C0.6599999999999682 0.3300000000000125 1.32000000000005 0.6599999999999966 2 1 C-0.9700000000000273 3.969999999999999 -3.9400000000000546 6.939999999999998 -7 10 C-7.659999999999968 9.669999999999987 -8.32000000000005 9.340000000000003 -9 9 C-6.319419019531438 5.425892026041964 -3.5741079739580073 2.680580980468534 0 0 Z " fill="#C8C7CA" transform="translate(904,142)"/>
<path d="M0 0 C0.6599999999999966 0 1.3199999999999932 0 2 0 C0.8225541514174495 3.532337545747623 0.043943587401486184 3.8630807502562448 -3.0625 5.6875 C-3.7959765624999875 6.124492187499982 -4.529453125000003 6.5614843750000205 -5.28515625 7.01171875 C-5.85105468750001 7.3378515625000205 -6.416953124999992 7.663984374999984 -7 8 C-7 6.680000000000007 -7 5.360000000000014 -7 4 C-4.352610836501526 2.5393714960008538 -3.1055166570809547 2 0 2 C0 1.339999999999975 0 0.6800000000000068 0 0 Z " fill="#8351AC" transform="translate(147,267)"/>
<path d="M0 0 C0.3300000000000125 1.3200000000000003 0.6599999999999966 2.6400000000000006 1 4 C-0.9646641301016246 5.067752244620451 -2.968553590901138 6.065534651814531 -5 7 C-5.659999999999997 6.670000000000002 -6.319999999999993 6.340000000000003 -7 6 C-4.689999999999998 4.019999999999996 -2.3799999999999955 2.039999999999999 0 0 Z " fill="#2C73BA" transform="translate(142,31)"/>
<path d="M0 0 C0.6599999999999966 0.3299999999999841 1.3199999999999932 0.660000000000025 2 1 C-0.6399999999999864 2.980000000000018 -3.280000000000001 4.9599999999999795 -6 7 C-6 6.009999999999991 -6 5.019999999999982 -6 4 C-3 1.8125 -3 1.8125 0 0 Z " fill="#BA6BA7" transform="translate(215,264)"/>
<path d="M0 0 C-1 3 -1 3 -4 5 C-6.1875 4.625 -6.1875 4.625 -8 4 C-2.25 0 -2.25 0 0 0 Z " fill="#AC60AD" transform="translate(225,237)"/>
<path d="M0 0 C0.9900000000000091 0.3300000000000125 1.9799999999999898 0.6599999999999966 3 1 C1.0257986513053652 3.522590612220938 0.032543579727047245 3.9929807965294515 -3.1875 4.6875 C-3.6515625000000114 4.739062499999989 -3.6515625000000114 4.739062499999989 -6 5 C-2.25 1.125 -2.25 1.125 0 0 Z " fill="#8853A7" transform="translate(208,203)"/>
<path d="M0 0 C-0.6600000000000001 1.9799999999999898 -1.3200000000000003 3.960000000000008 -2 6 C-2.990000000000002 5.6699999999999875 -3.9800000000000004 5.340000000000003 -5 5 C-5 4.009999999999991 -5 3.0200000000000102 -5 2 C-2 0 -2 0 0 0 Z " fill="#4264BA" transform="translate(28,239)"/>
</svg>
